<?xml version="1.0" encoding="UTF-8" standalone="no"?>
<svg
   version="1.0"
   width="1024.000000pt"
   height="1024.000000pt"
   viewBox="0 0 1024.000000 1024.000000"
   preserveAspectRatio="xMidYMid meet"
   id="svg1"
   sodipodi:docname="OIG.svg"
   inkscape:version="1.3 (0e150ed6c4, 2023-07-21)"
   inkscape:export-filename="OIG.png"
   inkscape:export-xdpi="96"
   inkscape:export-ydpi="96"
   xmlns:inkscape="http://www.inkscape.org/namespaces/inkscape"
   xmlns:sodipodi="http://sodipodi.sourceforge.net/DTD/sodipodi-0.dtd"
   xmlns="http://www.w3.org/2000/svg"
   xmlns:svg="http://www.w3.org/2000/svg">
  <defs
     id="defs1" />
  <sodipodi:namedview
     id="namedview1"
     pagecolor="#ffffff"
     bordercolor="#000000"
     borderopacity="0.25"
     inkscape:showpageshadow="2"
     inkscape:pageopacity="0.0"
     inkscape:pagecheckerboard="0"
     inkscape:deskcolor="#d1d1d1"
     inkscape:document-units="pt"
     inkscape:zoom="0.85986328"
     inkscape:cx="577.99886"
     inkscape:cy="633.82169"
     inkscape:window-width="2560"
     inkscape:window-height="1378"
     inkscape:window-x="0"
     inkscape:window-y="0"
     inkscape:window-maximized="1"
     inkscape:current-layer="g1" />
  <g
     transform="translate(0.000000,1024.000000) scale(0.100000,-0.100000)"
     fill="#000000"
     stroke="none"
     id="g1">
    <path
       d="m 7387,9055 c -73,-28 -149,-89 -394,-318 -137,-128 -359,-333 -493,-457 -135,-123 -315,-289 -400,-369 -85,-79 -180,-167 -210,-195 -30,-28 -116,-107 -190,-176 -74,-69 -184,-170 -245,-225 -60,-55 -152,-140 -205,-189 -52,-49 -120,-112 -150,-140 -30,-28 -159,-148 -285,-266 -127,-118 -366,-341 -533,-495 -183,-170 -308,-293 -318,-314 -19,-40 -15,-108 10,-146 9,-13 31,-33 49,-42 29,-16 74,-18 485,-21 l 452,-3 v -118 c 0,-136 -14,-292 -36,-401 -79,-383 -318,-761 -679,-1070 -187,-160 -352,-280 -795,-578 -697,-469 -966,-674 -1262,-961 l -108,-104 v -210 -209 l 102,94 c 96,87 155,139 413,359 350,300 694,557 1263,946 325,222 439,306 607,448 440,373 720,813 822,1290 l 36,170 2,333 c 3,282 6,335 18,345 17,13 224,201 408,370 64,59 120,107 123,107 10,0 6,-902 -4,-1060 -34,-514 -226,-985 -586,-1435 -182,-227 -375,-408 -674,-632 -176,-131 -245,-179 -820,-578 -173,-120 -394,-273 -490,-340 -96,-67 -272,-187 -390,-266 -476,-321 -569,-390 -722,-538 l -108,-104 v -104 c 0,-117 12,-153 60,-178 49.3124,-26.5528 5446.4708,-16.0111 5478,-4 33.229,17.1676 44,28 48,77 -23.3093,84.4313 -3944.8251,19.5558 -3869,82 11,8 170,115 354,238 383,255 1129,762 1329,901 335,235 577,437 790,663 355,378 627,816 785,1268 65,187 137,512 147,664 l 3,40 70,-80 c 39,-44 99,-115 135,-158 36,-42 80,-87 99,-98 41,-26 113,-28 158,-5 43,23 91,81 98,119 3,18 4,901 3,1963 -3,1859 -4,1931 -22,1965 -26,49 -84,108 -131,133 -51,26 -173,33 -228,12 z M 6427,6213 c -3,-792 -4,-834 -25,-963 -100,-620 -349,-1122 -821,-1655 -83,-93 -296,-297 -396,-380 -127,-105 -320,-245 -555,-404 -263,-177 -450,-304 -730,-496 -135,-92 -432,-292 -662,-445 -522,-349 -576,-388 -726,-531 l -189,46 c 48.4948,61.6092 488.566,438.2941 649,577 86,59 311,215 573,398 83,57 274,190 425,295 151,105 338,233 415,285 567,379 834,608 1111,950 343,424 532,827 624,1330 31,167 43,521 38,1084 l -5,479 131,128 c 72,71 135,129 139,129 5,0 6,-372 4,-827 z"
       id="path1"
       sodipodi:nodetypes="ccccssccscccccccsccccccccccccccccsccccscccsccccccccccccccccccccccccccccccsccccccsc"
       style="fill:#ccff00" />
  </g>
</svg>
